<mxfile host="app.diagrams.net" modified="2023-09-14T23:50:05.195Z" agent="Mozilla/5.0 (Windows NT 10.0; Win64; x64) AppleWebKit/537.36 (KHTML, like Gecko) Chrome/116.0.0.0 Safari/537.36" etag="CkiBctymcHC41z1OL-SE" version="21.7.2" type="github">
  <diagram name="Page-1" id="r5JAqoueRRTjqVNhq3rL">
    <mxGraphModel dx="2074" dy="1118" grid="1" gridSize="10" guides="1" tooltips="1" connect="1" arrows="1" fold="1" page="1" pageScale="1" pageWidth="827" pageHeight="1169" math="0" shadow="0">
      <root>
        <mxCell id="0" />
        <mxCell id="1" parent="0" />
        <mxCell id="vKg2L1TojeoMJuKDQd_H-1" value="a,b" style="rounded=1;whiteSpace=wrap;html=1;" vertex="1" parent="1">
          <mxGeometry x="120" y="330" width="120" height="40" as="geometry" />
        </mxCell>
        <mxCell id="vKg2L1TojeoMJuKDQd_H-3" value="a" style="rounded=1;whiteSpace=wrap;html=1;" vertex="1" parent="1">
          <mxGeometry x="370" y="315" width="120" height="30" as="geometry" />
        </mxCell>
        <mxCell id="vKg2L1TojeoMJuKDQd_H-4" value="b" style="rounded=1;whiteSpace=wrap;html=1;" vertex="1" parent="1">
          <mxGeometry x="370" y="355" width="120" height="30" as="geometry" />
        </mxCell>
        <mxCell id="vKg2L1TojeoMJuKDQd_H-7" value="" style="shape=flexArrow;endArrow=classic;html=1;rounded=0;width=11;endSize=9.67;" edge="1" parent="1">
          <mxGeometry width="50" height="50" relative="1" as="geometry">
            <mxPoint x="270" y="349.92" as="sourcePoint" />
            <mxPoint x="340" y="349.92" as="targetPoint" />
          </mxGeometry>
        </mxCell>
        <mxCell id="vKg2L1TojeoMJuKDQd_H-8" value="扩容" style="edgeLabel;html=1;align=center;verticalAlign=middle;resizable=0;points=[];labelBackgroundColor=none;" vertex="1" connectable="0" parent="vKg2L1TojeoMJuKDQd_H-7">
          <mxGeometry x="-0.1524" y="3" relative="1" as="geometry">
            <mxPoint x="18" y="3" as="offset" />
          </mxGeometry>
        </mxCell>
        <mxCell id="vKg2L1TojeoMJuKDQd_H-9" value="" style="shape=flexArrow;endArrow=classic;html=1;rounded=0;width=11;endSize=9.67;" edge="1" parent="1">
          <mxGeometry width="50" height="50" relative="1" as="geometry">
            <mxPoint x="520" y="350" as="sourcePoint" />
            <mxPoint x="590" y="350" as="targetPoint" />
          </mxGeometry>
        </mxCell>
        <mxCell id="vKg2L1TojeoMJuKDQd_H-10" value="缩容" style="edgeLabel;html=1;align=center;verticalAlign=middle;resizable=0;points=[];labelBackgroundColor=none;" vertex="1" connectable="0" parent="vKg2L1TojeoMJuKDQd_H-9">
          <mxGeometry x="-0.019" y="-2" relative="1" as="geometry">
            <mxPoint x="14" y="-2" as="offset" />
          </mxGeometry>
        </mxCell>
        <mxCell id="vKg2L1TojeoMJuKDQd_H-11" value="a,b" style="rounded=1;whiteSpace=wrap;html=1;" vertex="1" parent="1">
          <mxGeometry x="600" y="335" width="120" height="30" as="geometry" />
        </mxCell>
        <mxCell id="vKg2L1TojeoMJuKDQd_H-12" value="" style="shape=flexArrow;endArrow=classic;html=1;rounded=0;width=11;endSize=9.67;" edge="1" parent="1">
          <mxGeometry width="50" height="50" relative="1" as="geometry">
            <mxPoint x="270" y="549.8" as="sourcePoint" />
            <mxPoint x="340" y="549.8" as="targetPoint" />
          </mxGeometry>
        </mxCell>
        <mxCell id="vKg2L1TojeoMJuKDQd_H-13" value="扩容" style="edgeLabel;html=1;align=center;verticalAlign=middle;resizable=0;points=[];labelBackgroundColor=none;" vertex="1" connectable="0" parent="vKg2L1TojeoMJuKDQd_H-12">
          <mxGeometry x="-0.1524" y="3" relative="1" as="geometry">
            <mxPoint x="18" y="3" as="offset" />
          </mxGeometry>
        </mxCell>
        <mxCell id="vKg2L1TojeoMJuKDQd_H-14" value="a,b" style="rounded=1;whiteSpace=wrap;html=1;" vertex="1" parent="1">
          <mxGeometry x="120" y="530" width="120" height="40" as="geometry" />
        </mxCell>
        <mxCell id="vKg2L1TojeoMJuKDQd_H-15" value="a" style="rounded=1;whiteSpace=wrap;html=1;" vertex="1" parent="1">
          <mxGeometry x="370" y="500" width="120" height="30" as="geometry" />
        </mxCell>
        <mxCell id="vKg2L1TojeoMJuKDQd_H-16" value="b" style="rounded=1;whiteSpace=wrap;html=1;" vertex="1" parent="1">
          <mxGeometry x="370" y="540" width="120" height="30" as="geometry" />
        </mxCell>
        <mxCell id="vKg2L1TojeoMJuKDQd_H-17" value="" style="rounded=1;whiteSpace=wrap;html=1;" vertex="1" parent="1">
          <mxGeometry x="370" y="580" width="120" height="30" as="geometry" />
        </mxCell>
      </root>
    </mxGraphModel>
  </diagram>
</mxfile>
